<svg width="1320" height="270" viewBox="0 0 1320 270" fill="none" xmlns="http://www.w3.org/2000/svg">
<path d="M42.4286 49.5298L36 58.431C39.9796 61.5004 47.0204 64.2629 54.0612 62.4212C58.3469 65.7975 64.8776 65.286 68.1429 65.1837C67.6327 70.5039 66.9184 87.6516 68.1429 113.68C69.3673 139.708 88.2449 157.47 97.5306 163.097L89.5714 198.702L97.5306 234H115.286L108.551 198.702L115.286 163.097L130.592 234H148.653L133.653 163.097H172.225L157.224 234H175.592L190.592 163.097L197.633 198.702L190.592 234H208.959L216 198.702L208.653 163.097C210.184 159.107 210.998 157.548 212.02 153.275C217.531 130.255 207.122 111.634 201 104.779L186.306 89.7388C179.878 83.293 168.857 82.9861 161.816 88.8179C156.64 93.1052 153.709 93.3419 148.653 88.8179C146.51 86.9763 141.213 80.7602 134.265 75.0057C127.224 69.1739 114.98 71.6294 110.388 76.5404L89.5714 97.4122V41.5494L93.6 35.9999C80.3347 38.6601 53.3265 42.9613 50.3878 43.698C47.449 44.4346 43.8571 47.8928 42.4286 49.5298Z" fill="#4215CC"/>
<path d="M65.6572 49.6288L69.9429 45.5018L74.2287 49.6288L69.9429 54.0733L65.6572 49.6288Z" fill="white"/>
<path d="M264 160.285C264 140.991 270.103 125.142 282.31 112.739C288.019 106.898 294.647 102.239 302.194 98.7607C314.991 92.92 329.856 89.9997 346.787 89.9997C355.581 89.9997 363.358 90.6888 370.117 92.0669C376.876 93.3794 384.85 95.8732 394.038 99.5483L395.219 101.714C393.841 107.555 392.299 117.858 390.592 132.624H382.717L381.733 115.298C376.942 110.77 372.578 107.62 368.64 105.848C361.947 102.83 354.367 101.32 345.901 101.32C327.723 101.32 313.974 107.719 304.655 120.516C297.699 130.031 294.221 142.336 294.221 157.43C294.221 175.018 298.749 189.357 307.805 200.448C318.699 213.836 333.76 220.53 352.989 220.53C366.114 220.53 379.206 217.084 392.266 210.193L394.628 212.654L390.199 222.498C384.555 225.583 379.83 227.748 376.023 228.995C366.704 232.08 356.303 233.622 344.818 233.622C327.887 233.622 313.252 230.537 300.915 224.369C292.449 220.169 285.164 214.328 279.061 206.847C269.02 194.509 264 178.988 264 160.285Z" fill="#4215CC"/>
<path d="M407.238 233.622V223.286L413.243 222.695C417.64 222.301 421.413 218.265 424.563 210.587L461.084 122.288L472.601 91.87H486.875L539.047 213.836C541.344 219.086 545.052 222.039 550.171 222.695L554.994 223.286V233.622C537.407 233.228 526.933 233.622 523.323 233.622C519.32 233.622 508.958 233.228 492.486 233.622V223.286L503.216 222.695C504.331 222.63 505.25 222.072 505.972 221.022C506.759 219.972 507.153 218.725 507.153 217.281C507.153 215.444 506.759 213.573 505.972 211.67L496.916 188.635H446.318L437.852 211.178C437.262 212.884 436.966 214.558 436.966 216.198C436.966 217.97 437.491 219.48 438.541 220.726C439.657 221.973 441.068 222.63 442.774 222.695L452.815 223.286V233.635C447.696 233.504 443.562 233.693 441.002 233.627C435.555 233.43 431.837 233.622 429.802 233.622H407.238ZM451.24 177.315H492.289L471.321 126.127L451.24 177.315Z" fill="#4215CC"/>
<path d="M566.423 233.622V223.286L573.904 222.695C577.842 222.367 580.368 221.547 581.484 220.234C582.862 218.659 583.551 212.884 583.551 202.909V120.713C583.551 111.722 583.059 106.275 582.074 104.372C581.156 102.403 578.432 101.255 573.904 100.926L566.423 100.336V92.8544L576.66 93.1497C583.354 93.3466 587.193 93.4451 588.178 93.4451H590.639L614.855 92.8544C622.467 109.392 627.488 120.22 629.916 125.339L661.81 191.884L698.626 115.594C700.464 111.984 703.778 104.405 708.568 92.8544C722.547 93.2482 730.258 93.4451 731.701 93.4451C733.211 93.4451 741.02 93.2482 755.13 92.8544V100.336L747.649 100.926C743.711 101.255 741.152 102.075 739.97 103.387C738.658 104.962 738.002 110.737 738.002 120.713V202.909C738.002 211.965 738.428 217.347 739.281 219.053C740.134 220.694 742.924 221.711 747.649 222.105L755.13 222.695V233.622C740.102 233.228 729.752 233.622 723.846 233.622C717.874 233.622 707.321 233.228 692.424 233.622V222.695L699.906 222.105C704.106 221.776 706.698 221.055 707.682 219.939C708.929 218.561 709.553 212.884 709.553 202.909V119.039L668.012 205.567C662.762 216.461 658.726 225.32 655.904 232.145H649.111C645.568 223.745 643.139 218.167 641.827 215.411L595.462 118.842V202.909C595.462 211.9 595.922 217.379 596.84 219.348C597.759 221.251 600.515 222.367 605.109 222.695L612.591 223.286V233.622C600.644 233.622 593.251 233.622 589.444 233.622C585.572 233.622 578.17 233.228 566.423 233.622Z" fill="#4215CC"/>
<path d="M770.604 100.336V92.8544C788.585 93.2482 801.251 93.4451 808.601 93.4451C814.77 93.4451 823.498 93.3138 834.786 93.0513C844.433 92.8544 851.684 92.756 856.541 92.756C863.234 92.756 869.6 92.9857 875.638 93.4451L876.819 94.8232L874.063 123.567H866.778L865.203 108.408C865.072 107.358 863.103 106.472 859.297 105.75C855.556 104.962 850.995 104.569 845.614 104.569C835.179 104.569 825.368 104.766 816.181 105.159V153.591C819.593 153.854 824.089 153.985 829.667 153.985H842.956C847.287 153.985 850.241 153.69 851.816 153.099C853.391 152.508 854.277 151.393 854.473 149.752L855.655 138.235H863.727C863.661 141.45 863.595 143.879 863.53 145.519C863.267 152.147 863.136 156.183 863.136 157.627C863.136 158.743 863.136 159.465 863.136 159.793L863.727 181.548H855.655L854.473 171.507C854.145 168.816 853.095 166.913 851.323 165.798C849.551 164.616 846.762 164.026 842.956 164.026H829.667C825.664 164.026 821.168 164.223 816.181 164.616V218.462C826.025 218.987 834.851 219.25 842.661 219.25C852.767 219.25 860.544 218.233 865.991 216.198C866.319 216.067 866.516 215.903 866.581 215.706L871.208 196.707H879.083L876.819 228.602L876.248 233.719C866.864 234.31 856.643 233.785 847.128 233.785C837.153 233.785 826.329 234.097 814.647 233.704C809.2 233.507 804.917 233.622 801.767 233.622C797.239 233.622 789.307 233.228 777.297 233.622V226.141L783.696 222.498C786.387 220.989 787.732 217.15 787.732 210.981V120.713C787.732 111.722 787.24 106.275 786.255 104.372C785.337 102.469 782.613 101.32 778.085 100.926L770.604 100.336Z" fill="#4215CC"/>
<path d="M893.849 100.926V92.8544C910.059 93.2482 920.493 93.4451 925.152 93.4451C929.746 93.4451 940.214 93.2482 956.555 92.8544V100.926L949.073 101.517C944.807 101.845 942.182 102.567 941.198 103.683C940.017 105.126 939.426 110.803 939.426 120.713V218.462C948.942 218.987 957.768 219.25 965.906 219.25C976.209 219.25 983.986 218.233 989.236 216.198C989.564 216.067 989.761 215.903 989.827 215.706L994.453 195.132H1002L1000.06 228.602L998.89 233.704C989.505 234.294 979.845 233.704 970.329 233.704C960.354 233.704 950.09 234.097 938.409 233.704C932.962 233.507 928.119 233.704 924.969 233.704C920.441 233.704 912.552 233.31 900.543 233.704V226.141L906.941 222.498C909.632 220.989 910.977 217.183 910.977 211.079V120.713C910.977 111.722 910.551 106.373 909.698 104.667C908.844 102.961 906.055 101.911 901.33 101.517L893.849 100.926Z" fill="#4215CC"/>
<path d="M1008 167.661C1008.55 166.019 1009.14 164.298 1009.77 162.499C1010.84 159.565 1011.63 157.199 1012.14 155.4H1053.74L1054.8 156.632C1052.91 161.012 1051.63 165.002 1050.96 168.6H1008.95L1008 167.661Z" fill="#4215CC"/>
<path d="M1060.8 233.986V223.568L1066.8 222.977C1071.2 222.583 1074.97 218.547 1078.13 210.869L1114.65 122.569L1126.2 90H1140.6L1192.61 214.118C1194.91 219.368 1198.61 222.321 1203.73 222.977L1208.56 223.568V233.986C1191 233.986 1180.3 233.986 1176.69 233.986C1172.69 233.986 1162.2 233.986 1146.05 233.986V223.568L1156.78 222.977C1157.89 222.911 1158.81 222.354 1159.53 221.304C1160.32 220.254 1160.72 219.007 1160.72 217.563C1160.72 215.725 1160.32 213.855 1159.53 211.952L1150.48 188.917H1099.88L1091.41 211.46C1090.82 213.166 1090.53 214.839 1090.53 216.48C1090.53 218.252 1091.05 219.761 1092.1 221.008C1093.22 222.255 1094.63 222.911 1096.34 222.977L1106.38 223.568V233.986C1101.26 233.854 1097.49 234.051 1094.93 233.986C1089.3 233.986 1085.2 233.986 1083.17 233.986H1060.8ZM1104.8 177.597H1145.85L1124.88 126.409L1104.8 177.597Z" fill="#4215CC"/>
<path d="M1221.36 233.986V222.977L1228.84 222.386C1233.04 222.058 1235.64 221.336 1236.62 220.221C1237.87 218.843 1238.49 213.166 1238.49 203.191V120.994C1238.49 112.004 1238.06 103.655 1237.21 101.949C1236.36 100.243 1233.57 99.1927 1228.84 98.7989L1221.6 98.0998V89.9998C1237.8 89.9998 1248.14 89.9998 1252.8 89.9998C1257.39 89.9998 1267.73 89.9998 1284 89.9998V98.0998L1276.59 98.7989C1272.32 99.127 1269.7 99.8489 1268.71 100.965C1267.53 102.408 1266.94 111.085 1266.94 120.994V203.191C1266.94 212.247 1267.37 217.629 1268.22 219.335C1269.07 220.975 1271.86 221.993 1276.59 222.386L1284 222.9V234C1269.23 234 1258.5 233.986 1252.33 233.986C1246.1 233.986 1236 233.986 1221.36 233.986Z" fill="#4215CC"/>
</svg>
